# xmcd CD database file
#
# Track frame offsets:
#	150
#	10189
#	22085
#	35553
#	48990
#	65908
#	75958
#	87305
#	98267
#	109653
#	124718
#	142474
#	153890
#	161856
#	172577
#	184379
#	198673
#	212014
#	224076
#	237545
#
# Disc length: 3310 seconds
#
# Revision: 1
# Processed by: cddbd v1.5.2PL0 Copyright (c) Steve Scherf et al.
# Submitted via: CDex 1.51
#
DISCID=1d0cec14
DTITLE=Various Artist - Legendy svìtové country
DYEAR=1900
DGENRE=Country
TTITLE0=Get Rhythm
TTITLE1=Today, Tomororrow, And Forever
TTITLE2=Rhinestone Cowboy
TTITLE3=I Will Always Love You
TTITLE4=Blue Bayou
TTITLE5=Dust On The Bible
TTITLE6=Sea Of Heartbreak
TTITLE7=Fool Number One
TTITLE8=Baby,Baby (I Know You're A Lady)
TTITLE9=Can't Help Falling In Love
TTITLE10=If You Could Read My Mind
TTITLE11=Just Out Of Reach
TTITLE12=Do-Wacka-Do
TTITLE13=A Rose And A Baby Ruth
TTITLE14=I'm Not Through Loving You Yet
TTITLE15=Branden Man
TTITLE16=Fever
TTITLE17=Don't Thing Twice, It's Alright
TTITLE18=Heartaches By The Number
TTITLE19=There Won't Be Anymore
EXTD=
EXTT0=
EXTT1=
EXTT2=
EXTT3=
EXTT4=
EXTT5=
EXTT6=
EXTT7=
EXTT8=
EXTT9=
EXTT10=
EXTT11=
EXTT12=
EXTT13=
EXTT14=
EXTT15=
EXTT16=
EXTT17=
EXTT18=
EXTT19=
PLAYORDER=
